<?xml version="1.0" encoding="UTF-8"?>
<svg xmlns="http://www.w3.org/2000/svg" viewBox="0 0 352 298" shape-rendering="crispEdges">
<title>Pixel-art walking bug</title>
<style>
.f1 { animation: a1 0.5s infinite steps(1); }
.f2 { animation: a2 0.5s infinite steps(1); }
@keyframes a1 { 0%,49.9% { opacity:1; } 50%,100% { opacity:0; } }
@keyframes a2 { 0%,49.9% { opacity:0; } 50%,100% { opacity:1; } }
</style>
<g fill="#1F1A2C">
<rect x="95" y="5" width="18" height="36"/>
<rect x="239" y="5" width="18" height="36"/>
<rect x="113" y="41" width="18" height="18"/>
<rect x="221" y="41" width="18" height="18"/>
<rect x="131" y="59" width="18" height="18"/>
<rect x="203" y="59" width="18" height="18"/>
<rect x="113" y="77" width="126" height="18"/>
<rect x="95" y="95" width="18" height="36"/>
<rect x="239" y="95" width="18" height="36"/>
<rect x="77" y="131" width="198" height="18"/>
<rect x="59" y="149" width="18" height="126"/>
<rect x="275" y="149" width="18" height="126"/>
<rect x="77" y="275" width="198" height="18"/>
</g>
<g fill="#F4C642">
<rect x="113" y="95" width="18" height="36"/>
<rect x="149" y="95" width="54" height="36"/>
<rect x="221" y="95" width="18" height="36"/>
<rect x="131" y="113" width="18" height="18"/>
<rect x="203" y="113" width="18" height="18"/>
</g>
<g fill="#FFFFFF">
<rect x="131" y="95" width="18" height="18"/>
<rect x="203" y="95" width="18" height="18"/>
</g>
<g fill="#E8923C">
<rect x="77" y="149" width="18" height="126"/>
<rect x="113" y="149" width="54" height="126"/>
<rect x="185" y="149" width="54" height="126"/>
<rect x="257" y="149" width="18" height="126"/>
<rect x="95" y="149" width="18" height="36"/>
<rect x="95" y="203" width="18" height="36"/>
<rect x="95" y="257" width="18" height="18"/>
<rect x="239" y="149" width="18" height="36"/>
<rect x="239" y="203" width="18" height="36"/>
<rect x="239" y="257" width="18" height="18"/>
</g>
<g fill="#B85C1F">
<rect x="95" y="185" width="18" height="18"/>
<rect x="95" y="239" width="18" height="18"/>
<rect x="239" y="185" width="18" height="18"/>
<rect x="239" y="239" width="18" height="18"/>
</g>
<g fill="#5BABCA">
<rect x="167" y="149" width="18" height="126"/>
</g>
<g fill="#1F1A2C">
<g class="f1">
<rect x="5" y="131" width="54" height="18"/>
<rect x="293" y="185" width="54" height="18"/>
<rect x="5" y="239" width="54" height="18"/>
<rect x="5" y="203" width="54" height="18"/>
<rect x="293" y="149" width="54" height="18"/>
<rect x="293" y="257" width="54" height="18"/>
</g>
<g class="f2">
<rect x="5" y="149" width="54" height="18"/>
<rect x="293" y="203" width="54" height="18"/>
<rect x="5" y="257" width="54" height="18"/>
<rect x="5" y="185" width="54" height="18"/>
<rect x="293" y="131" width="54" height="18"/>
<rect x="293" y="239" width="54" height="18"/>
</g>
</g>
</svg>
